<?xml version="1.0" encoding="UTF-8" standalone="no"?>
<!-- Created with Inkscape (http://www.inkscape.org/) -->

<svg
   width="48"
   height="47.999996"
   viewBox="0 0 12.7 12.699999"
   version="1.1"
   id="svg1"
   xml:space="preserve"
   inkscape:version="1.4.4 (dcaf3e7, 2026-05-05)"
   sodipodi:docname="FInal SMT_ico.svg"
   xmlns:inkscape="http://www.inkscape.org/namespaces/inkscape"
   xmlns:sodipodi="http://sodipodi.sourceforge.net/DTD/sodipodi-0.dtd"
   xmlns="http://www.w3.org/2000/svg"
   xmlns:svg="http://www.w3.org/2000/svg"><sodipodi:namedview
     id="namedview1"
     pagecolor="#505050"
     bordercolor="#ffffff"
     borderopacity="1"
     inkscape:showpageshadow="0"
     inkscape:pageopacity="0"
     inkscape:pagecheckerboard="1"
     inkscape:deskcolor="#505050"
     inkscape:document-units="mm"
     inkscape:zoom="11.313709"
     inkscape:cx="25.013902"
     inkscape:cy="25.676815"
     inkscape:window-width="1920"
     inkscape:window-height="1057"
     inkscape:window-x="1912"
     inkscape:window-y="-8"
     inkscape:window-maximized="1"
     inkscape:current-layer="layer1" /><defs
     id="defs1" /><g
     inkscape:label="Capa 1"
     inkscape:groupmode="layer"
     id="layer1"
     transform="translate(-250.23355,-33.456497)"><g
       id="g13"
       transform="translate(-91.29927,21.889374)"><path
         style="fill:#e5e5e5;fill-opacity:1;stroke-width:0.075"
         d="m 347.75527,21.646025 c -0.0497,-0.05903 -0.0514,-0.06988 -0.0514,-0.326523 v -0.265469 l -0.0744,-0.01243 c -0.1613,-0.02695 -0.43658,-0.114948 -0.57919,-0.185161 -0.43485,-0.214091 -0.69849,-0.485538 -0.91508,-0.942167 -0.12359,-0.260567 -0.15772,-0.427922 -0.15772,-0.773462 0,-0.292485 6.7e-4,-0.297255 0.0506,-0.343528 0.0936,-0.08672 0.12729,-0.07242 0.73818,0.313117 0.6448,0.406938 0.71004,0.454924 0.797,0.586211 0.11093,0.167467 0.1406,0.306972 0.1406,0.661059 0,0.356595 -0.0102,0.337377 0.17859,0.337377 0.18907,0 0.17859,0.02029 0.17859,-0.345788 0,-0.358885 0.0221,-0.472733 0.12221,-0.63047 0.0325,-0.05127 0.092,-0.122793 0.1322,-0.15895 0.0402,-0.03616 0.33775,-0.233081 0.66131,-0.43761 0.6425,-0.406128 0.67054,-0.417768 0.76428,-0.3173 l 0.0509,0.05457 -0.0105,0.3175 c -0.0112,0.337936 -0.0278,0.422966 -0.13558,0.692688 -0.12422,0.311004 -0.40324,0.662406 -0.6567,0.827091 -0.27574,0.179152 -0.50385,0.276326 -0.77434,0.329859 l -0.15379,0.03044 v 0.263948 c 0,0.255009 -0.002,0.266014 -0.0514,0.325001 -0.0409,0.04857 -0.0669,0.06105 -0.12722,0.06105 -0.0603,0 -0.0863,-0.01249 -0.12722,-0.06105 z m -0.45891,-1.698401 c -0.0328,-0.06697 -0.0817,-0.126924 -0.13453,-0.16474 -0.1072,-0.07677 -0.83436,-0.535835 -0.83994,-0.530259 -0.0147,0.01467 0.0592,0.310341 0.11141,0.445589 0.14997,0.388892 0.40274,0.660666 0.78086,0.839582 l 0.12263,0.05802 0.006,-0.271454 c 0.005,-0.25773 0.003,-0.276776 -0.046,-0.376741 z m 1.26866,0.579453 c 0.38225,-0.186404 0.66104,-0.504223 0.79262,-0.903592 0.0536,-0.162786 0.0861,-0.357333 0.0596,-0.356938 -0.009,1.5e-4 -0.20838,0.12292 -0.44261,0.272851 -0.46859,0.299948 -0.52123,0.350879 -0.55626,0.538241 -0.022,0.117687 -0.0276,0.51819 -0.007,0.51819 0.007,0 0.0762,-0.03094 0.15379,-0.06875 z m -1.65789,-1.784514 c -0.61834,-0.387523 -0.72325,-0.465019 -0.80556,-0.595067 -0.10753,-0.169884 -0.12408,-0.271894 -0.12408,-0.764663 0,-0.445955 5.2e-4,-0.451679 0.0459,-0.494326 0.0975,-0.09159 0.0985,-0.09114 0.95121,0.436119 0.4861,0.300568 0.57689,0.383215 0.6724,0.61214 0.0423,0.101291 0.0461,0.143033 0.0528,0.580383 l 0.007,0.471242 -0.0596,0.05958 c -0.0342,0.03416 -0.0806,0.05958 -0.10877,0.05958 -0.0295,0 -0.28269,-0.146338 -0.63156,-0.364985 z m 0.43958,-0.37526 c 0,-0.201587 -0.005,-0.234758 -0.0514,-0.327487 -0.0597,-0.119812 -0.0779,-0.133912 -0.5935,-0.459412 l -0.37703,-0.238028 -0.006,0.171066 c -0.003,0.09409 0.004,0.219081 0.0164,0.277766 0.037,0.17838 0.1032,0.240925 0.56486,0.533888 0.2292,0.145444 0.42342,0.264909 0.43161,0.265479 0.008,6e-4 0.0149,-0.0999 0.0149,-0.223272 z m 0.77238,0.68224 -0.058,-0.058 2.3e-4,-0.433128 c 3e-4,-0.484651 0.0151,-0.575891 0.12247,-0.754702 0.0362,-0.06026 0.10153,-0.140439 0.14518,-0.178184 0.0437,-0.03774 0.33976,-0.228723 0.658,-0.424396 0.62884,-0.386649 0.66213,-0.400076 0.75186,-0.303261 0.0486,0.05238 0.0487,0.05351 0.0484,0.481211 -2.2e-4,0.450524 -0.0136,0.549703 -0.0961,0.710926 -0.0587,0.114762 -0.1379,0.200941 -0.26371,0.286882 -0.33222,0.226925 -1.16128,0.730662 -1.20254,0.730662 -0.0264,0 -0.0738,-0.02598 -0.10584,-0.05801 z m 0.72582,-0.716195 c 0.45744,-0.287395 0.47446,-0.300815 0.53481,-0.421937 0.0456,-0.09148 0.0506,-0.124529 0.0506,-0.334804 v -0.233305 l -0.43868,0.279992 c -0.47628,0.303984 -0.53425,0.358083 -0.57192,0.533735 -0.0117,0.05456 -0.0213,0.180146 -0.0213,0.27909 v 0.1799 l 0.0447,-0.02913 c 0.0245,-0.01602 0.20538,-0.130114 0.40183,-0.253539 z m -1.91492,-1.483555 c -0.77788,-0.492021 -0.77466,-0.489371 -0.88833,-0.731986 -0.0538,-0.114778 -0.0543,-0.120101 -0.0605,-0.599319 -0.006,-0.477612 -0.006,-0.484089 0.0382,-0.53082 0.0322,-0.03428 0.0659,-0.04731 0.12241,-0.04731 0.0665,0 0.15582,0.04875 0.60674,0.331142 0.58404,0.365761 0.68837,0.440659 0.78834,0.565964 0.13917,0.174441 0.15476,0.248207 0.16287,0.770185 l 0.007,0.466745 -0.0502,0.05415 c -0.0996,0.107472 -0.14163,0.09136 -0.72677,-0.278758 z m 0.37711,-0.704283 c -0.0225,-0.0478 -0.0741,-0.118571 -0.11472,-0.15728 -0.0546,-0.052 -0.65662,-0.433112 -0.86556,-0.54793 -0.0103,-0.0056 -0.0136,0.08608 -0.008,0.217149 0.0114,0.259189 0.0466,0.362842 0.15928,0.469875 0.0381,0.03618 0.24684,0.175231 0.46387,0.308991 l 0.39459,0.243199 0.006,-0.223552 c 0.005,-0.19175 -2.3e-4,-0.235913 -0.0353,-0.310452 z m 0.80142,0.987212 -0.05,-0.04998 0.006,-0.480839 0.006,-0.480838 0.0613,-0.12934 c 0.0985,-0.207955 0.20138,-0.293563 0.82176,-0.684154 0.62923,-0.396165 0.68446,-0.418772 0.78281,-0.320419 l 0.0506,0.05062 v 0.435374 c 0,0.497852 -0.0237,0.621557 -0.15111,0.788465 -0.10702,0.140202 -0.13306,0.159346 -0.75366,0.553968 -0.63544,0.40406 -0.67222,0.419124 -0.7742,0.31714 z m 0.74563,-0.718495 c 0.20229,-0.124699 0.39652,-0.254303 0.43163,-0.288009 0.11519,-0.110573 0.14452,-0.203924 0.14452,-0.459881 v -0.226956 l -0.39687,0.242211 c -0.21827,0.133217 -0.42953,0.273026 -0.46946,0.310687 -0.1144,0.107901 -0.14977,0.211555 -0.16129,0.472606 l -0.01,0.22619 0.0468,-0.02506 c 0.0258,-0.01378 0.21234,-0.127088 0.41463,-0.251786 z m -1.09225,-1.015934 -0.058,-0.058 V 14.7626 c 0,-0.635514 0.003,-0.651878 0.12111,-0.693101 0.0737,-0.02568 0.13751,-0.0031 0.19378,0.06839 0.0409,0.05204 0.0423,0.07209 0.0423,0.624461 v 0.570694 l -0.0576,0.06163 c -0.0767,0.08212 -0.16184,0.0834 -0.24161,0.0036 z m -0.69453,-0.357187 c -0.0571,-0.05715 -0.058,-0.06125 -0.058,-0.278511 0,-0.244848 0.0183,-0.296429 0.12003,-0.338573 0.0461,-0.01911 0.071,-0.01911 0.11712,0 0.10175,0.04214 0.12003,0.09372 0.12003,0.338573 0,0.217259 -8.5e-4,0.22136 -0.058,0.278511 -0.0396,0.03959 -0.0779,0.058 -0.12059,0.058 -0.0427,0 -0.081,-0.01842 -0.12059,-0.058 z m 1.42035,0.03404 c -0.0786,-0.04508 -0.088,-0.07862 -0.0887,-0.315661 -5.3e-4,-0.200412 0.005,-0.23702 0.0387,-0.280543 0.0515,-0.06551 0.12289,-0.08172 0.20633,-0.04685 0.0937,0.03916 0.11801,0.123269 0.10795,0.373848 -0.008,0.187908 -0.011,0.201342 -0.0629,0.245969 -0.059,0.05075 -0.1377,0.05983 -0.2015,0.02324 z"
         id="path13"
         sodipodi:nodetypes="sscsssscssssssssscsssscssssssssscssssscsssssssscssscsssssssccsscscccsssscsssccssscssscsssssssssscssssssssscsssccccssscsssccssscssscssccsssscsscssssssssscsssss" /><path
         style="fill:#d68f00;fill-opacity:1;stroke-width:0.075"
         d="m 341.53282,17.917123 v -6.35 h 6.35 6.35 v 6.35 6.349999 h -6.35 -6.35 z m 6.47722,3.729102 c 0.0496,-0.05899 0.0514,-0.06999 0.0514,-0.325001 v -0.263948 l 0.15379,-0.03044 c 0.27049,-0.05353 0.4986,-0.150707 0.77433,-0.329859 0.25347,-0.164685 0.53248,-0.516087 0.65671,-0.827091 0.10774,-0.269722 0.12438,-0.354752 0.13557,-0.692688 l 0.0105,-0.3175 -0.0509,-0.05457 c -0.0937,-0.100468 -0.12178,-0.08883 -0.76428,0.3173 -0.32356,0.204529 -0.62115,0.401454 -0.66131,0.43761 -0.0402,0.03616 -0.0996,0.107685 -0.1322,0.15895 -0.10014,0.157737 -0.12221,0.271585 -0.12221,0.63047 0,0.366075 0.0105,0.345788 -0.17859,0.345788 -0.18877,0 -0.1786,0.01922 -0.1786,-0.337377 0,-0.354087 -0.0297,-0.493592 -0.14059,-0.661059 -0.087,-0.131287 -0.1522,-0.179273 -0.79701,-0.586211 -0.61088,-0.385534 -0.6446,-0.399837 -0.73817,-0.313117 -0.0499,0.04627 -0.0506,0.05104 -0.0506,0.343528 0,0.34554 0.0341,0.512895 0.15772,0.773462 0.21659,0.456629 0.48023,0.728076 0.91507,0.942167 0.14262,0.07021 0.41789,0.158216 0.5792,0.185161 l 0.0744,0.01243 v 0.265469 c 0,0.256646 0.002,0.267498 0.0514,0.326523 0.0409,0.04857 0.0669,0.06105 0.12722,0.06105 0.0603,0 0.0864,-0.01249 0.12722,-0.06105 z m -0.79555,-1.108229 c -0.37812,-0.178916 -0.63089,-0.45069 -0.78086,-0.839582 -0.0522,-0.135248 -0.12608,-0.430916 -0.11141,-0.445589 0.006,-0.0056 0.73274,0.453484 0.83994,0.530259 0.0528,0.03782 0.10176,0.09777 0.13453,0.16474 0.0489,0.09997 0.0512,0.119011 0.046,0.376741 l -0.006,0.271454 z m 1.18427,-0.147618 c 0,-0.113108 0.009,-0.253751 0.02,-0.312539 0.035,-0.187362 0.0877,-0.238293 0.55626,-0.538241 0.23422,-0.149931 0.4334,-0.272714 0.44261,-0.272851 0.0265,-3.75e-4 -0.006,0.194152 -0.0596,0.356938 -0.13158,0.399369 -0.41037,0.717188 -0.79262,0.903592 -0.0776,0.03781 -0.14675,0.06875 -0.15379,0.06875 -0.007,0 -0.0128,-0.09254 -0.0128,-0.205651 z m -0.75097,-1.342209 0.0596,-0.05958 -0.007,-0.471242 c -0.007,-0.43735 -0.0105,-0.479092 -0.0528,-0.580383 -0.0955,-0.228925 -0.1863,-0.311572 -0.6724,-0.61214 -0.85273,-0.527263 -0.85372,-0.527713 -0.95121,-0.436119 -0.0454,0.04265 -0.0459,0.04837 -0.0459,0.494326 0,0.380945 0.006,0.469216 0.0362,0.567048 0.0464,0.1485 0.11763,0.260313 0.22537,0.353529 0.13851,0.119838 1.24448,0.804138 1.29966,0.804138 0.0282,0 0.0746,-0.02542 0.10877,-0.05958 z m -0.74724,-0.722873 c -0.46166,-0.292963 -0.52783,-0.355508 -0.56487,-0.533888 -0.0122,-0.05869 -0.0196,-0.18368 -0.0164,-0.277766 l 0.006,-0.171066 0.37703,0.238028 c 0.51559,0.3255 0.5338,0.3396 0.59351,0.459412 0.0462,0.09273 0.0514,0.1259 0.0514,0.327487 0,0.123369 -0.007,0.223841 -0.0149,0.223272 -0.008,-6e-4 -0.2024,-0.120035 -0.4316,-0.265479 z m 1.89674,0.453427 c 0.78007,-0.489629 0.80061,-0.505443 0.89421,-0.688519 0.0824,-0.161223 0.0958,-0.260402 0.0961,-0.710926 2.3e-4,-0.427704 1.5e-4,-0.428826 -0.0484,-0.481211 -0.0897,-0.09681 -0.12302,-0.08339 -0.75186,0.303261 -0.31824,0.195673 -0.61434,0.386651 -0.658,0.424396 -0.0437,0.03774 -0.10899,0.117928 -0.14518,0.178184 -0.1074,0.178811 -0.12221,0.270051 -0.12247,0.754702 l -2.3e-4,0.433128 0.058,0.058 c 0.032,0.03203 0.0794,0.05801 0.10584,0.05801 0.0275,0 0.27011,-0.139515 0.57203,-0.329025 z m -0.39853,-0.342404 c 0,-0.09894 0.01,-0.224535 0.0213,-0.27909 0.0377,-0.175652 0.0956,-0.229751 0.57191,-0.533735 l 0.43869,-0.279992 v 0.233305 c 0,0.210275 -0.005,0.243323 -0.0506,0.334804 -0.0604,0.121122 -0.0774,0.134542 -0.53481,0.421937 -0.19645,0.123425 -0.37728,0.237517 -0.40184,0.253539 l -0.0446,0.02913 z m -0.74167,-1.307568 0.0502,-0.05415 -0.007,-0.466745 c -0.008,-0.521978 -0.0237,-0.595744 -0.16287,-0.770186 -0.1,-0.125304 -0.2043,-0.200203 -0.78834,-0.565964 -0.45092,-0.282391 -0.54025,-0.331142 -0.60674,-0.331142 -0.0565,0 -0.0902,0.01303 -0.12241,0.04731 -0.0439,0.04673 -0.0444,0.05321 -0.0382,0.53082 0.006,0.479218 0.007,0.484541 0.0605,0.599319 0.11366,0.242615 0.11044,0.239965 0.88832,0.731986 0.58515,0.370113 0.62717,0.38623 0.72677,0.278758 z m -0.71457,-0.692236 c -0.21702,-0.13376 -0.42576,-0.272806 -0.46386,-0.308991 -0.11271,-0.107033 -0.14784,-0.210686 -0.15928,-0.469876 -0.006,-0.131066 -0.003,-0.222792 0.008,-0.217149 0.01,0.0054 0.19191,0.115023 0.40473,0.243662 0.58224,0.35193 0.62011,0.399789 0.61082,0.772001 l -0.006,0.223552 z m 1.94052,0.379267 c 0.6206,-0.394622 0.64665,-0.413766 0.75367,-0.553968 0.1274,-0.166908 0.15111,-0.290613 0.15111,-0.788465 v -0.435375 l -0.0506,-0.05062 c -0.0983,-0.09835 -0.15358,-0.07574 -0.78281,0.32042 -0.62038,0.390591 -0.7232,0.476199 -0.82175,0.684154 l -0.0613,0.12934 -0.006,0.480838 -0.006,0.480839 0.05,0.04998 c 0.10198,0.101984 0.13876,0.08692 0.7742,-0.31714 z M 348.403,16.465085 c 0.0115,-0.261051 0.0469,-0.364705 0.16129,-0.472606 0.0399,-0.03766 0.25119,-0.177471 0.46947,-0.310687 l 0.39687,-0.242211 v 0.226956 c 0,0.255957 -0.0293,0.349308 -0.14452,0.459881 -0.0527,0.05058 -0.68098,0.451341 -0.84626,0.539795 l -0.0468,0.02506 z m -0.39916,-1.070218 0.0576,-0.06163 v -0.570693 c 0,-0.552369 -10e-4,-0.572421 -0.0423,-0.624462 -0.0563,-0.07154 -0.12012,-0.09407 -0.19378,-0.06839 -0.11826,0.04122 -0.12112,0.05759 -0.12112,0.693101 v 0.577694 l 0.058,0.058 c 0.0798,0.07977 0.1649,0.07849 0.24161,-0.0036 z m -0.69496,-0.353562 c 0.0572,-0.05715 0.058,-0.06125 0.058,-0.278511 0,-0.244848 -0.0183,-0.296429 -0.12003,-0.338572 -0.0462,-0.01912 -0.071,-0.01912 -0.11713,0 -0.10174,0.04214 -0.12003,0.09372 -0.12003,0.338572 0,0.217259 8.6e-4,0.22136 0.058,0.278511 0.0396,0.03959 0.0779,0.058 0.12059,0.058 0.0427,0 0.081,-0.01842 0.12059,-0.058 z m 1.38067,0.0108 c 0.0519,-0.04463 0.0553,-0.05806 0.0629,-0.245969 0.0101,-0.250579 -0.0142,-0.334688 -0.10795,-0.373848 -0.0834,-0.03486 -0.1548,-0.01866 -0.20633,0.04685 -0.0342,0.04352 -0.0393,0.08013 -0.0387,0.280543 3.7e-4,0.149973 0.009,0.24139 0.0248,0.261694 0.0677,0.08733 0.18391,0.100789 0.26536,0.03073 z"
         id="path12" /></g></g></svg>
